500MB for the full Men In Black Trilogy. Welcome to the Recapstore.

Subs included. Please seed to at least a 1.5 ratio! 

(Wikipedia) Men in Black is a series of American science fiction action comedy films directed by Barry Sonnenfeld, and based on Malibu / Marvel comic book series The Men in Black by Lowell Cunningham. The first film, Men in Black, was released in 1997, the second film, Men in Black II, in 2002, and the third film, Men in Black 3 was released in 2012. Amblin Entertainment and MacDonald/Parkes Productions produced all three films and distributed through Columbia Pictures.

Sample mediainfo from Men In Black (1997):

Format                                   : MPEG-4
Format profile                           : Base Media / Version 2
Codec ID                                 : mp42
File size                                : 170 MiB
Duration                                 : 1h 37mn
Overall bit rate mode                    : Variable
Overall bit rate                         : 242 Kbps
Encoded date                             : UTC 2012-09-18 06:32:47
Tagged date                              : UTC 2012-09-18 08:54:45
Writing application                      : HandBrake 0.9.8 2012071700

Video
ID                                       : 1
Format                                   : AVC
Format/Info                              : Advanced Video Codec
Format profile                           : High@L2.1
Format settings, CABAC                   : Yes
Format settings, ReFrames                : 15 frames
Codec ID                                 : avc1
Codec ID/Info                            : Advanced Video Coding
Duration                                 : 1h 37mn
Bit rate mode                            : Variable
Bit rate                                 : 173 Kbps
Width                                    : 352 pixels
Height                                   : 192 pixels
Display aspect ratio                     : 1.85:1
Frame rate mode                          : Variable
Frame rate                               : 23.976 fps
Minimum frame rate                       : 7.992 fps
Maximum frame rate                       : 23.981 fps
Color space                              : YUV
Chroma subsampling                       : 4:2:0
Bit depth                                : 8 bits
Scan type                                : Progressive
Bits/(Pixel*Frame)                       : 0.107
Stream size                              : 121 MiB (71%)
Writing library                          : x264 core 120
Encoding settings                        : cabac=1 / ref=16 / deblock=1:2:2 / analyse=0x3:0x133 / me=tesa / subme=10 / psy=1 / psy_rd=1.20:0.20 / mixed_ref=1 / me_range=16 / chroma_me=1 / trellis=2 / 8x8dct=1 / cqm=0 / deadzone=21,11 / fast_pskip=1 / chroma_qp_offset=-3 / threads=6 / sliced_threads=0 / nr=0 / decimate=1 / interlaced=0 / bluray_compat=0 / constrained_intra=0 / bframes=16 / b_pyramid=1 / b_adapt=2 / b_bias=0 / direct=1 / weightb=1 / open_gop=0 / weightp=2 / keyint=240 / keyint_min=24 / scenecut=40 / intra_refresh=0 / rc_lookahead=40 / rc=crf / mbtree=1 / crf=23.0 / qcomp=0.60 / qpmin=3 / qpmax=69 / qpstep=4 / ip_ratio=1.40 / aq=1:2.00
Encoded date                             : UTC 2012-09-18 06:32:47
Tagged date                              : UTC 2012-09-18 08:54:44
Color primaries                          : BT.709
Transfer characteristics                 : BT.709
Matrix coefficients                      : BT.709

Audio
ID                                       : 2
Format                                   : AAC
Format/Info                              : Advanced Audio Codec
Format profile                           : LC
Codec ID                                 : 40
Duration                                 : 1h 37mn
Bit rate mode                            : Variable
Bit rate                                 : 64.1 Kbps
Maximum bit rate                         : 98.4 Kbps
Channel(s)                               : 2 channels
Channel positions                        : Front: L R
Sampling rate                            : 48.0 KHz
Compression mode                         : Lossy
Delay relative to video                  : 167ms
Stream size                              : 45.0 MiB (27%)
Language                                 : English
Encoded date                             : UTC 2012-09-18 06:32:47
Tagged date                              : UTC 2012-09-18 08:54:44